<?xml version="1.0" encoding="utf-8"?>
<svg viewBox="0 0 500 500" xmlns="http://www.w3.org/2000/svg" xmlns:bx="https://boxy-svg.com">
  <circle style="pointer-events: none;" cx="250" cy="250" r="250"/>
  <path style="fill: rgb(0, 242, 178);" transform="matrix(1.393437, -0.024323, 0.024323, 1.393437, 26.030964, -54.605804)" d="M 158.667 61.427 A 148.573 148.573 0 0 1 287.334992316 135.7135 L 217.152293594 176.2335 A 67.533 67.533 0 0 0 158.667 142.467 Z" role="button" class="button-game green" bx:shape="pie 158.667 210 67.533 148.573 0 60 1@ef867a04"/>
  <path style="fill: rgb(93, 0, 242);" transform="matrix(1.480752, 0, 0, 1.480752, 27.451302, -61.958035)" d="M 287.334992316 135.7135 A 148.573 148.573 0 0 1 287.334992316 284.2865 L 217.152293594 243.7665 A 67.533 67.533 0 0 0 217.152293594 176.2335 Z" class="button-game" role="button" bx:shape="pie 158.667 210 67.533 148.573 60 120 1@da763e10" bx:origin="-0.536742 -0.636364"/>
  <path style="fill: rgb(0, 153, 242);" transform="matrix(1.480752, 0, 0, 1.480752, 25.053513, -48.957722)" d="M 287.334992316 284.2865 A 148.573 148.573 0 0 1 158.667 358.573 L 158.667 277.533 A 67.533 67.533 0 0 0 217.152293594 243.7665 Z" class="button-game" role="button" bx:shape="pie 158.667 210 67.533 148.573 120 180 1@d22a3e7a" bx:origin="-1.127403 -0.11898"/>
  <path style="fill: rgb(93, 0, 242);" transform="matrix(1.480752, 0, 0, 1.480752, 10.078908, -52.957722)" d="M 158.667 358.573 A 148.573 148.573 0 0 1 29.999007684 284.2865 L 100.181706406 243.7665 A 67.533 67.533 0 0 0 158.667 277.533 Z" class="button-game" role="button" bx:shape="pie 158.667 210 67.533 148.573 180 240 1@9b256e67" bx:origin="-1.127403 -0.11898"/>
  <path style="fill: rgb(93, 0, 242);" transform="matrix(1.393649, 0, 0, 1.393649, 12.691912, -55.607674)" d="M 29.999007684 135.7135 A 148.573 148.573 0 0 1 158.667 61.427 L 158.667 142.467 A 67.533 67.533 0 0 0 100.181706406 176.2335 Z" class="button-game" role="button" bx:shape="pie 158.667 210 67.533 148.573 300 360 1@2f09dad4" bx:origin="1.090242 1.375"/>
  <path style="fill: rgb(0, 242, 178);" transform="matrix(1.413447, 0, 0, 1.413447, 7.732668, -46.823841)" d="M 29.999007684 284.2865 A 148.573 148.573 0 0 1 29.999007684 135.7135 L 100.181706406 176.2335 A 67.533 67.533 0 0 0 100.181706406 243.7665 Z" class="button-game" role="button" bx:shape="pie 158.667 210 67.533 148.573 240 300 1@774e9440"/>
  <circle style="fill: rgb(43, 30, 218);" cx="250" cy="250" r="95"/>
</svg>