<?xml version="1.0" encoding="utf-8"?>
<svg viewBox="0 0 500 500" xmlns="http://www.w3.org/2000/svg" xmlns:bx="https://boxy-svg.com">
  <circle style="fill: rgb(216, 216, 216); pointer-events: none;" cx="250" cy="250" r="250"/>
  <path style="fill: rgb(0, 242, 178); pointer-events: none;" transform="matrix(1.480751, 0, 0, 1.480751, 15.053671, -60.958076)" d="M 158.667 41.167 A 168.833 168.833 0 0 1 304.880666997 125.5835 L 217.152293594 176.2335 A 67.533 67.533 0 0 0 158.667 142.467 Z" role="button" class="button-game green" bx:shape="pie 158.667 210 67.533 168.833 0 60 1@f7dda6ab"/>
  <path style="fill: rgb(93, 0, 242); pointer-events: none;" transform="matrix(1.480752, 0, 0, 1.480752, 15.051297, -60.958023)" d="M 304.880666997 125.5835 A 168.833 168.833 0 0 1 304.880666997 294.4165 L 217.152293594 243.7665 A 67.533 67.533 0 0 0 217.152293594 176.2335 Z" class="button-game" role="button" bx:shape="pie 158.667 210 67.533 168.833 60 120 1@89cc0169" bx:origin="-1.127403 -0.11898"/>
  <path style="fill: rgb(0, 153, 242); pointer-events: none;" transform="matrix(1.480752, 0, 0, 1.480752, 15.053514, -60.957726)" d="M 304.880666997 294.4165 A 168.833 168.833 0 0 1 158.667 378.833 L 158.667 277.533 A 67.533 67.533 0 0 0 217.152293594 243.7665 Z" class="button-game" role="button" bx:shape="pie 158.667 210 67.533 168.833 120 180 1@55680aed" bx:origin="-1.127403 -0.11898"/>
  <path style="fill: rgb(93, 0, 242); pointer-events: none;" transform="matrix(1.480752, 0, 0, 1.480752, 15.059702, -60.957726)" d="M 158.667 378.833 A 168.833 168.833 0 0 1 12.453333003 294.4165 L 100.181706406 243.7665 A 67.533 67.533 0 0 0 158.667 277.533 Z" class="button-game" role="button" bx:shape="pie 158.667 210 67.533 168.833 180 240 1@2a718e03" bx:origin="-1.127403 -0.11898"/>
  <path style="fill: rgb(93, 0, 242); pointer-events: none;" transform="matrix(1.480752, 0, 0, 1.480752, 15.059695, -60.958115)" d="M 12.453333003 125.5835 A 168.833 168.833 0 0 1 158.667 41.167 L 158.667 142.467 A 67.533 67.533 0 0 0 100.181706406 176.2335 Z" class="button-game" role="button" bx:shape="pie 158.667 210 67.533 168.833 300 360 1@43cdfb28" bx:origin="-1.127403 -0.11898"/>
  <path style="fill: rgb(0, 242, 178); pointer-events: none;" transform="matrix(1.480751, 0, 0, 1.480751, 15.053321, -60.957901)" d="M 12.453333003 294.4165 A 168.833 168.833 0 0 1 12.453333003 125.5835 L 100.181706406 176.2335 A 67.533 67.533 0 0 0 100.181706406 243.7665 Z" class="button-game" role="button" bx:shape="pie 158.667 210 67.533 168.833 240 300 1@4614ad51"/>
  <circle style="fill: rgb(43, 30, 218);" cx="250" cy="250" r="100"/>
</svg>