<?xml version="1.0" encoding="utf-8"?>
<svg viewBox="0 0 500 500" xmlns="http://www.w3.org/2000/svg" xmlns:bx="https://boxy-svg.com">
  <circle style="pointer-events: none;" cx="250" cy="250" r="250"/>
  <path style="fill: rgb(0, 242, 178); pointer-events: none;" transform="matrix(1.38583, 0, 0, 1.38583, 35.114494, -46.024345)" d="M 158.667 104.648 A 105.352 105.352 0 0 1 264.019 210 L 214.942 210 A 56.275 56.275 0 0 0 158.667 153.725 Z" role="button" class="button-game green" bx:shape="pie 158.667 210 56.275 105.352 0 90 1@ff561693"/>
  <path style="fill: rgb(0, 153, 242); pointer-events: none;" transform="matrix(1.385831, 0, 0, 1.385831, 25.114416, -36.024532)" d="M 158.667 315.352 A 105.352 105.352 0 0 1 53.315 210 L 102.392 210 A 56.275 56.275 0 0 0 158.667 266.275 Z" class="button-game" role="button" bx:shape="pie 158.667 210 56.275 105.352 180 270 1@0a49b9fb" bx:origin="-1.127403 -0.11898"/>
  <path style="fill: rgb(93, 0, 242); pointer-events: none;" transform="matrix(1.385831, 0, 0, 1.385831, 35.114323, -36.024532)" d="M 264.019 210 A 105.352 105.352 0 0 1 158.667 315.352 L 158.667 266.275 A 56.275 56.275 0 0 0 214.942 210 Z" class="button-game" role="button" bx:shape="pie 158.667 210 56.275 105.352 90 180 1@9bb1b9bf" bx:origin="-1.127403 -0.11898"/>
  <path style="fill: rgb(93, 0, 242); pointer-events: none;" transform="matrix(1.38583, 0, 0, 1.38583, 25.114473, -46.024345)" d="M 53.315 210 A 105.352 105.352 0 0 1 158.667 104.648 L 158.667 153.725 A 56.275 56.275 0 0 0 102.392 210 Z" class="button-game" role="button" bx:shape="pie 158.667 210 56.275 105.352 270 360 1@00b2de66" bx:origin="-1.127403 -0.11898"/>
  <circle style="fill: rgb(43, 30, 218); pointer-events: none;" cx="250" cy="250" r="72"/>
  <path style="fill: rgb(242, 0, 0); pointer-events: none;" transform="matrix(0, -1.359742, 1.359742, 0, -35.545837, 451.133209)" d="M 273.274867095 95.392132905 A 162.08 162.08 0 0 1 273.274867095 324.607867095 L 237.937205705 289.270205705 A 112.105 112.105 0 0 0 237.937205705 130.729794295 Z" role="button" class="button-game green" bx:shape="pie 158.667 210 112.105 162.08 45 135 1@4d0040ca" bx:origin="-1.431273 2.421037"/>
  <path style="fill: rgb(242, 0, 0); pointer-events: none;" transform="matrix(0.000001, 1.359742, -1.359742, 0.000001, 535.545532, 48.866676)" d="M 273.274867095 95.392132905 A 162.08 162.08 0 0 1 273.274867095 324.607867095 L 237.937205705 289.270205705 A 112.105 112.105 0 0 0 237.937205705 130.729794295 Z" role="button" class="button-game green" bx:shape="pie 158.667 210 112.105 162.08 45 135 1@4d0040ca" bx:origin="-1.431273 2.421037"/>
  <path style="fill: rgb(0, 81, 242); pointer-events: none;" transform="matrix(-1.359742, 0.000001, -0.000001, -1.359742, 451.133545, 535.545532)" d="M 273.274867095 95.392132905 A 162.08 162.08 0 0 1 273.274867095 324.607867095 L 237.937205705 289.270205705 A 112.105 112.105 0 0 0 237.937205705 130.729794295 Z" role="button" class="button-game green" bx:shape="pie 158.667 210 112.105 162.08 45 135 1@4d0040ca" bx:origin="-1.431273 2.421037"/>
  <path style="fill: rgb(0, 81, 242); pointer-events: none;" transform="matrix(1.359742, -0.000001, 0.000001, 1.359742, 48.866676, -35.545559)" d="M 273.274867095 95.392132905 A 162.08 162.08 0 0 1 273.274867095 324.607867095 L 237.937205705 289.270205705 A 112.105 112.105 0 0 0 237.937205705 130.729794295 Z" role="button" class="button-game green" bx:shape="pie 158.667 210 112.105 162.08 45 135 1@4d0040ca" bx:origin="-1.431273 2.421037"/>
</svg>