<?xml version="1.0" encoding="utf-8"?>
<svg viewBox="0 0 500 500" xmlns="http://www.w3.org/2000/svg" xmlns:bx="https://boxy-svg.com">
  <defs>
    <radialGradient gradientUnits="userSpaceOnUse" cx="250" cy="250" r="95" id="gradient-4">
      <stop offset="0" style="stop-color: rgba(131, 115, 141, 1)"/>
      <stop offset="1" style="stop-color: rgba(79, 69, 85, 1)"/>
    </radialGradient>
    <radialGradient gradientUnits="userSpaceOnUse" cx="239.707" cy="128.96" r="81.04" id="gradient-0">
      <stop offset="0" style="stop-color: rgba(223, 37, 37, 1)"/>
      <stop offset="1" style="stop-color: rgba(138, 20, 20, 1)"/>
    </radialGradient>
    <radialGradient gradientUnits="userSpaceOnUse" cx="239.707" cy="291.04" r="81.04" id="gradient-1">
      <stop offset="0" style="stop-color: rgba(79, 203, 75, 1)"/>
      <stop offset="1" style="stop-color: rgba(43, 137, 39, 1)"/>
    </radialGradient>
    <radialGradient gradientUnits="userSpaceOnUse" cx="77.627" cy="291.04" r="81.04" id="gradient-2">
      <stop offset="0" style="stop-color: rgba(59, 54, 218, 1)"/>
      <stop offset="1" style="stop-color: rgba(30, 26, 143, 1)"/>
    </radialGradient>
    <radialGradient gradientUnits="userSpaceOnUse" cx="77.627" cy="128.96" r="81.04" id="gradient-3">
      <stop offset="0" style="stop-color: rgba(194, 210, 46, 1)"/>
      <stop offset="1" style="stop-color: rgba(117, 127, 27, 1)"/>
    </radialGradient>
  </defs>
  <circle style="pointer-events: none; fill: rgb(3, 3, 3);" cx="250" cy="250" r="250"/>
  <path style="fill: url(#gradient-0);" transform="matrix(1.357354, 0, 0, 1.357354, 44.632694, -45.044403)" d="M 158.667 47.92 A 162.08 162.08 0 0 1 320.747 210 L 232.954 210 A 74.287 74.287 0 0 0 158.667 135.713 Z" role="button" class="button-game red" id="btnRed" bx:shape="pie 158.667 210 74.287 162.08 0 90 1@126c8de3"/>
  <path style="fill: url(#gradient-2);" transform="matrix(1.357354, 0, 0, 1.357354, 24.632647, -25.04431)" d="M 158.667 372.08 A 162.08 162.08 0 0 1 -3.413 210 L 84.38 210 A 74.287 74.287 0 0 0 158.667 284.287 Z" class="button-game blue" role="button" id="btnBlue" bx:shape="pie 158.667 210 74.287 162.08 180 270 1@061170ac" bx:origin="-1.127403 -0.11898"/>
  <path style="fill: url(#gradient-1);" transform="matrix(1.357354, 0, 0, 1.357354, 44.632694, -25.044348)" d="M 320.747 210 A 162.08 162.08 0 0 1 158.667 372.08 L 158.667 284.287 A 74.287 74.287 0 0 0 232.954 210 Z" class="button-game green" role="button" id="btnGreen" bx:shape="pie 158.667 210 74.287 162.08 90 180 1@8c4206c3" bx:origin="-1.127403 -0.11898"/>
  <path style="fill: url(#gradient-3);" d="M -3.413 210 A 162.08 162.08 0 0 1 158.667 47.92 L 158.667 135.713 A 74.287 74.287 0 0 0 84.38 210 Z" class="button-game yellow" role="button" transform="matrix(1.357354, 0, 0, 1.357354, 24.632648, -45.044403)" id="btnYellow" bx:shape="pie 158.667 210 74.287 162.08 270 360 1@5e2ec9df" bx:origin="0.499975 0.5"/>
  <circle style="stroke: rgb(186, 218, 85); stroke-width: 0px; fill: url(#gradient-4);" cx="250" cy="250" r="95" id="center" class="center-game"/>
</svg>