<?xml version="1.0" encoding="utf-8"?>
<svg viewBox="0 0 500 500" xmlns="http://www.w3.org/2000/svg" xmlns:bx="https://boxy-svg.com">
  <circle style="fill: rgb(216, 216, 216); pointer-events: none;" cx="250" cy="250" r="250"/>
  <path style="fill: rgb(0, 242, 178); pointer-events: none;" transform="matrix(1.480751, 0, 0, 1.480751, 15.053671, -60.958076)" d="M 158.667 97.895 A 112.105 112.105 0 0 1 270.772 210 L 214.942 210 A 56.275 56.275 0 0 0 158.667 153.725 Z" role="button" class="button-game green" bx:shape="pie 158.667 210 56.275 112.105 0 90 1@55226433"/>
  <path style="fill: rgb(0, 153, 242); pointer-events: none;" transform="matrix(1.480752, 0, 0, 1.480752, 15.053514, -60.957726)" d="M 158.667 322.105 A 112.105 112.105 0 0 1 46.562 210 L 102.392 210 A 56.275 56.275 0 0 0 158.667 266.275 Z" class="button-game" role="button" bx:shape="pie 158.667 210 56.275 112.105 180 270 1@88609ca7" bx:origin="-1.127403 -0.11898"/>
  <path style="fill: rgb(93, 0, 242); pointer-events: none;" transform="matrix(1.480752, 0, 0, 1.480752, 15.059702, -60.957726)" d="M 270.772 210 A 112.105 112.105 0 0 1 158.667 322.105 L 158.667 266.275 A 56.275 56.275 0 0 0 214.942 210 Z" class="button-game" role="button" bx:shape="pie 158.667 210 56.275 112.105 90 180 1@6c6a209e" bx:origin="-1.127403 -0.11898"/>
  <path style="fill: rgb(93, 0, 242); pointer-events: none;" transform="matrix(1.480752, 0, 0, 1.480752, 15.059695, -60.958115)" d="M 46.562 210 A 112.105 112.105 0 0 1 158.667 97.895 L 158.667 153.725 A 56.275 56.275 0 0 0 102.392 210 Z" class="button-game" role="button" bx:shape="pie 158.667 210 56.275 112.105 270 360 1@02de2405" bx:origin="-1.127403 -0.11898"/>
  <circle style="fill: rgb(43, 30, 218); pointer-events: none;" cx="250" cy="250" r="83.33"/>
  <path style="fill: rgb(242, 0, 0); pointer-events: none;" transform="matrix(0, -1.480751, 1.480751, 0, -60.957726, 484.945923)" d="M 278.049959188 90.617040812 A 168.833 168.833 0 0 1 278.049959188 329.382959188 L 237.937205705 289.270205705 A 112.105 112.105 0 0 0 237.937205705 130.729794295 Z" role="button" class="button-game green" bx:shape="pie 158.667 210 112.105 168.833 45 135 1@6f2dd0d4" bx:origin="-1.431273 2.421037"/>
  <path style="fill: rgb(242, 0, 0); pointer-events: none;" transform="matrix(0.000001, 1.480751, -1.480751, 0.000001, 560.957458, 15.053761)" d="M 278.049959188 90.617040812 A 168.833 168.833 0 0 1 278.049959188 329.382959188 L 237.937205705 289.270205705 A 112.105 112.105 0 0 0 237.937205705 130.729794295 Z" role="button" class="button-game green" bx:shape="pie 158.667 210 112.105 168.833 45 135 1@6f2dd0d4" bx:origin="-1.431273 2.421037"/>
  <path style="fill: rgb(0, 81, 242); pointer-events: none;" transform="matrix(-1.480751, 0.000001, -0.000001, -1.480751, 484.946259, 560.957458)" d="M 278.049959188 90.617040812 A 168.833 168.833 0 0 1 278.049959188 329.382959188 L 237.937205705 289.270205705 A 112.105 112.105 0 0 0 237.937205705 130.729794295 Z" role="button" class="button-game green" bx:shape="pie 158.667 210 112.105 168.833 45 135 1@6f2dd0d4" bx:origin="-1.431273 2.421037"/>
  <path style="fill: rgb(0, 81, 242); pointer-events: none;" transform="matrix(1.480751, -0.000001, 0.000001, 1.480751, 15.053761, -60.957443)" d="M 278.049959188 90.617040812 A 168.833 168.833 0 0 1 278.049959188 329.382959188 L 237.937205705 289.270205705 A 112.105 112.105 0 0 0 237.937205705 130.729794295 Z" role="button" class="button-game green" bx:shape="pie 158.667 210 112.105 168.833 45 135 1@6f2dd0d4" bx:origin="-1.431273 2.421037"/>
</svg>